<svg width="129" height="24" viewBox="0 0 129 24" fill="none" xmlns="http://www.w3.org/2000/svg">
<path d="M0.0227273 23.5H4.94318V13.8864H14.4091V9.82955H4.94318V4.28409H15.4318V0.227272H0.0227273V23.5ZM23.4091 23.8295C25.9886 23.8295 27.6591 22.7045 28.5114 21.0795H28.6477V23.5H33.2386V11.7273C33.2386 7.56818 29.7159 5.81818 25.8295 5.81818C21.6477 5.81818 18.8977 7.81818 18.2273 11L22.7045 11.3636C23.0341 10.2045 24.0682 9.35227 25.8068 9.35227C27.4545 9.35227 28.3977 10.1818 28.3977 11.6136V11.6818C28.3977 12.8068 27.2045 12.9545 24.1705 13.25C20.7159 13.5682 17.6136 14.7273 17.6136 18.625C17.6136 22.0795 20.0795 23.8295 23.4091 23.8295ZM24.7955 20.4886C23.3068 20.4886 22.2386 19.7955 22.2386 18.4659C22.2386 17.1023 23.3636 16.4318 25.0682 16.1932C26.125 16.0455 27.8523 15.7955 28.4318 15.4091V17.2614C28.4318 19.0909 26.9205 20.4886 24.7955 20.4886ZM51.517 11.0227C51.0852 7.80682 48.4943 5.81818 44.0852 5.81818C39.6193 5.81818 36.6761 7.88636 36.6875 11.25C36.6761 13.8636 38.3239 15.5568 41.733 16.2386L44.7557 16.8409C46.2784 17.1477 46.9716 17.7045 46.9943 18.5795C46.9716 19.6136 45.8466 20.3523 44.1534 20.3523C42.4261 20.3523 41.2784 19.6136 40.983 18.1932L36.2216 18.4432C36.6761 21.7841 39.517 23.8409 44.142 23.8409C48.6648 23.8409 51.9034 21.5341 51.9148 18.0909C51.9034 15.5682 50.2557 14.0568 46.8693 13.3636L43.7102 12.7273C42.0852 12.375 41.483 11.8182 41.4943 10.9773C41.483 9.93182 42.6648 9.25 44.1648 9.25C45.8466 9.25 46.8466 10.1705 47.0852 11.2955L51.517 11.0227ZM64.2472 6.04545H60.9631V1.86364H56.1222V6.04545H53.7358V9.68182H56.1222V18.7727C56.0994 22.1932 58.429 23.8864 61.9403 23.7386C63.1903 23.6932 64.0767 23.4432 64.5653 23.2841L63.804 19.6818C63.5653 19.7273 63.054 19.8409 62.5994 19.8409C61.6335 19.8409 60.9631 19.4773 60.9631 18.1364V9.68182H64.2472V6.04545ZM83.6733 6.04545H78.5483L74.9347 18.5341H74.7528L71.1278 6.04545H66.0142L72.1165 23.5H77.571L83.6733 6.04545ZM93.5114 23.8409C97.8295 23.8409 100.739 21.7386 101.42 18.5L96.9432 18.2045C96.4545 19.5341 95.2045 20.2273 93.5909 20.2273C91.1705 20.2273 89.6364 18.625 89.6364 16.0227V16.0114H101.523V14.6818C101.523 8.75 97.9318 5.81818 93.3182 5.81818C88.1818 5.81818 84.8523 9.46591 84.8523 14.8523C84.8523 20.3864 88.1364 23.8409 93.5114 23.8409ZM89.6364 13.0114C89.7386 11.0227 91.25 9.43182 93.3977 9.43182C95.5 9.43182 96.9545 10.9318 96.9659 13.0114H89.6364ZM104.682 23.5H109.523V13.625C109.523 11.4773 111.091 10 113.227 10C113.898 10 114.818 10.1136 115.273 10.2614V5.96591C114.841 5.86364 114.239 5.79545 113.75 5.79545C111.795 5.79545 110.193 6.93182 109.557 9.09091H109.375V6.04545H104.682V23.5ZM127.935 6.04545H124.651V1.86364H119.81V6.04545H117.423V9.68182H119.81V18.7727C119.787 22.1932 122.116 23.8864 125.628 23.7386C126.878 23.6932 127.764 23.4432 128.253 23.2841L127.491 19.6818C127.253 19.7273 126.741 19.8409 126.287 19.8409C125.321 19.8409 124.651 19.4773 124.651 18.1364V9.68182H127.935V6.04545Z" fill="white"/>
</svg>
